<svg id="Capa_1" data-name="Capa 1" xmlns="http://www.w3.org/2000/svg" viewBox="0 0 396 323.31"><defs><style>.cls-1{fill:#ff9709;}</style></defs><title>multiple-devices</title><path class="cls-1" d="M390,190.76H342.36V141.94a7.5,7.5,0,0,0-7.5-7.5H317.93V46.35a10,10,0,0,0-10-10H10a10,10,0,0,0-10,10V237.53a10,10,0,0,0,10,10H113.47c-2,11.43-6.27,30.32-14.88,49.08a10,10,0,0,0,9.08,14.17H178.2v26.27a7.5,7.5,0,0,0,7.5,7.5h108v9.1a6,6,0,0,0,6,6H390a6,6,0,0,0,6-6V196.76A6,6,0,0,0,390,190.76ZM178.2,141.94v85.59H20V56.35H297.93v78.09H185.7A7.5,7.5,0,0,0,178.2,141.94ZM293.68,329.55H193.2v-8.71h59.59v.71a7.5,7.5,0,1,0,15,0v-.71h25.89Zm0-132.79V305.84H193.2V149.44H327.36v41.32H299.68A6,6,0,0,0,293.68,196.76ZM384,347.65H305.68v-7.06h33.16v.6a6,6,0,0,0,12,0v-.6H384Zm0-19.06H305.68V221.83H384Zm0-118.76H305.68v-7.07H384Z" transform="translate(0 -36.35)"/></svg>