<svg height="512" viewBox="0 0 64 64" width="512" xmlns="http://www.w3.org/2000/svg"><path d="m20 24h24a0 0 0 0 1 0 0v4a2 2 0 0 1 -2 2h-20a2 2 0 0 1 -2-2v-4a0 0 0 0 1 0 0z" fill="#ff9811"/><rect fill="#aa6100" height="4" rx="2" width="24" x="20" y="17"/><path d="m22 21h20v3h-20z" fill="#ffda44"/><path d="m22 14h20v3h-20z" fill="#ffda44"/><path d="m28 6h8a8 8 0 0 1 8 8 0 0 0 0 1 0 0h-24a0 0 0 0 1 0 0 8 8 0 0 1 8-8z" fill="#ff9811"/><circle cx="32" cy="4" fill="#ed1c24" r="2"/><path d="m36 46h9v15h-9z" fill="#57565c"/><path d="m19 46h17v15h-17z" fill="#c6c5ca"/><path d="m28 46h-9l-4-5h9z" fill="#e0e0e2"/><path d="m36 46h9l4-5h-9z" fill="#e0e0e2"/><path d="m22 31h20a3 3 0 0 0 3-3v-4a1 1 0 0 0 -1-1h-1v-1.184a2.982 2.982 0 0 0 0-5.632v-1.184h1a1 1 0 0 0 1-1 9.011 9.011 0 0 0 -9-9h-1.184a2.966 2.966 0 0 0 .184-1 3 3 0 0 0 -6 0 2.966 2.966 0 0 0 .184 1h-1.184a9.011 9.011 0 0 0 -9 9 1 1 0 0 0 1 1h1v1.184a2.982 2.982 0 0 0 0 5.632v1.184h-1a1 1 0 0 0 -1 1v4a3 3 0 0 0 3 3zm9-27a1 1 0 1 1 1 1 1 1 0 0 1 -1-1zm-3 3h8a7.011 7.011 0 0 1 6.929 6h-21.858a7.011 7.011 0 0 1 6.929-6zm13 8v1h-18v-1zm-19 3h20a1 1 0 0 1 0 2h-20a1 1 0 0 1 0-2zm1 4h18v1h-18zm-2 3h22v3a1 1 0 0 1 -1 1h-20a1 1 0 0 1 -1-1z"/><path d="m24 12h6a1 1 0 0 0 0-2h-6a1 1 0 0 0 0 2z"/><path d="m33 12h1a1 1 0 0 0 0-2h-1a1 1 0 0 0 0 2z"/><path d="m49.9 40.567a1 1 0 0 0 -.9-.567h-9a1 1 0 0 0 -.781.375l-3.699 4.625h-7.04l-3.7-4.625a1 1 0 0 0 -.78-.375h-9a1 1 0 0 0 -.781 1.625l3.781 4.725v14.65a1 1 0 0 0 1 1h26a1 1 0 0 0 1-1v-14.65l3.781-4.725a1 1 0 0 0 .119-1.058zm-26.38 1.433 2.4 3h-6.44l-2.4-3zm-3.52 18v-13h15v13zm24 0h-7v-13h7zm.52-15h-6.439l2.4-3h6.439z"/><path d="m28 57h-6a1 1 0 0 0 0 2h6a1 1 0 0 0 0-2z"/><path d="m32 57h-1a1 1 0 0 0 0 2h1a1 1 0 0 0 0-2z"/><path d="m33 33a1 1 0 0 0 -2 0v5a1 1 0 0 0 2 0z"/><path d="m32 40a1 1 0 0 0 -1 1v1a1 1 0 0 0 2 0v-1a1 1 0 0 0 -1-1z"/><path d="m35 35v4a1 1 0 0 0 2 0v-4a1 1 0 0 0 -2 0z"/><path d="m27 37v3a1 1 0 0 0 2 0v-3a1 1 0 0 0 -2 0z"/></svg>