<?xml version="1.0" encoding="iso-8859-1"?>
<!-- Generator: Adobe Illustrator 19.0.0, SVG Export Plug-In . SVG Version: 6.00 Build 0)  -->
<svg xmlns="http://www.w3.org/2000/svg" xmlns:xlink="http://www.w3.org/1999/xlink" version="1.1" id="Capa_1" x="0px" y="0px" viewBox="0 0 512 512" style="enable-background:new 0 0 512 512;" xml:space="preserve" width="512" height="512">
<g>
	<g>
		<g>
			<path style="fill:#5C9CEE;" d="M225.339,291.359h-68.906c-47.335,0-85.708,38.373-85.708,85.708v105.55h240.322v-105.55     C311.046,329.731,272.674,291.359,225.339,291.359z"/>
			<path style="fill:#3580D3;" d="M225.339,291.359h-23.474c47.335,0,85.708,38.373,85.708,85.708v105.55h23.474v-105.55     C311.046,329.731,272.674,291.359,225.339,291.359z"/>
			<polygon style="fill:#444966;" points="201.118,291.359 180.653,291.359 152.362,387.517 190.886,426.972 229.409,387.517    "/>
			<g>
				<path style="fill:#F9C295;" d="M190.886,7.5L190.886,7.5c-54.034,0-97.837,43.803-97.837,97.837v47.169      c0,54.034,43.804,97.837,97.837,97.837l0,0c54.034,0,97.837-43.803,97.837-97.837v-47.169      C288.723,51.303,244.919,7.5,190.886,7.5z"/>
				<path style="fill:#E59F6A;" d="M190.886,7.5c-2.196,0-4.374,0.08-6.534,0.222c44.602,3.363,79.871,45.777,79.871,97.615v47.169      c0,51.838-35.269,94.252-79.871,97.615c2.16,0.143,4.338,0.222,6.534,0.222c54.034,0,97.837-43.803,97.837-97.837v-47.169      C288.723,51.303,244.919,7.5,190.886,7.5z"/>
				<path style="fill:#444966;" d="M254.542,31.087c0.001-0.004,0.002-0.008,0.003-0.012c-0.181-0.155-0.37-0.299-0.551-0.453      c-0.75-0.633-1.506-1.258-2.275-1.869c-0.35-0.279-0.704-0.552-1.058-0.826c-0.704-0.544-1.415-1.08-2.135-1.605      c-0.419-0.307-0.841-0.61-1.266-0.91c-0.659-0.465-1.324-0.921-1.995-1.37c-0.493-0.331-0.986-0.66-1.485-0.981      c-0.602-0.387-1.211-0.764-1.822-1.138c-0.578-0.355-1.155-0.71-1.74-1.053c-0.517-0.302-1.041-0.592-1.564-0.885      c-0.688-0.387-1.375-0.775-2.074-1.145c-0.359-0.19-0.726-0.369-1.088-0.555C222.116,11.407,206.964,7.5,190.886,7.5      c-54.034,0-97.837,43.803-97.837,97.837v9.044c14.407,6.356,30.326,9.912,47.084,9.912c34.415,0,65.335-14.903,86.71-38.587      c13.515,20.825,35.936,35.336,61.88,38.099v-18.468C288.723,75.62,275.458,49.023,254.542,31.087z"/>
				<path style="fill:#2E344C;" d="M288.578,100.026c-0.017-0.322-0.041-0.643-0.061-0.964c-0.036-0.56-0.072-1.12-0.117-1.678      c-0.026-0.329-0.058-0.657-0.088-0.986c-0.05-0.55-0.102-1.099-0.161-1.647c-0.035-0.323-0.073-0.645-0.111-0.967      c-0.066-0.557-0.135-1.112-0.21-1.665c-0.041-0.304-0.084-0.608-0.127-0.911c-0.084-0.58-0.173-1.158-0.268-1.735      c-0.044-0.271-0.088-0.541-0.134-0.811c-0.108-0.629-0.224-1.256-0.344-1.882c-0.041-0.211-0.08-0.423-0.122-0.634      c-0.146-0.732-0.3-1.461-0.462-2.187c-0.023-0.101-0.043-0.202-0.066-0.303c-4.72-20.831-16.095-39.131-31.766-52.568      c0.001-0.004,0.002-0.008,0.003-0.012c-0.181-0.155-0.37-0.299-0.551-0.453c-0.75-0.633-1.506-1.258-2.275-1.869      c-0.35-0.279-0.704-0.552-1.058-0.826c-0.704-0.544-1.415-1.08-2.135-1.605c-0.419-0.307-0.841-0.61-1.266-0.91      c-0.659-0.465-1.324-0.921-1.995-1.37c-0.493-0.331-0.986-0.66-1.485-0.981c-0.602-0.387-1.211-0.764-1.822-1.138      c-0.578-0.355-1.155-0.71-1.74-1.053c-0.517-0.302-1.041-0.592-1.564-0.885c-0.688-0.387-1.375-0.775-2.074-1.145      c-0.359-0.19-0.726-0.369-1.088-0.555c-10.021-5.152-21.038-8.637-32.694-10.061c-0.054-0.007-0.109-0.012-0.163-0.019      c-0.839-0.101-1.681-0.189-2.526-0.269c-0.224-0.021-0.449-0.04-0.674-0.06c-0.686-0.06-1.374-0.111-2.064-0.157      c-0.286-0.019-0.571-0.038-0.857-0.054c-0.664-0.038-1.33-0.066-1.997-0.091c-0.279-0.01-0.557-0.024-0.837-0.032      c-0.913-0.026-1.828-0.041-2.747-0.042c-0.016,0-0.033-0.001-0.049-0.001c-1.052,0-2.099,0.021-3.142,0.055      c-0.121,0.004-0.241,0.01-0.362,0.014c-1.013,0.037-2.024,0.087-3.03,0.153c44.602,3.363,79.871,45.777,79.871,97.615v12.012      c7.647,3.314,15.877,5.537,24.5,6.455v-18.468c0-0.891-0.013-1.778-0.037-2.663c-0.007-0.275-0.022-0.547-0.031-0.821      C288.633,101.242,288.61,100.633,288.578,100.026z"/>
			</g>
		</g>
		<polygon style="fill:#EBEEF2;" points="200.845,376.274 150.873,504.5 441.273,504.5 391.3,376.274   "/>
		<g>
			<path style="fill:#FCAB29;" d="M354.301,398.509l-33.593,26.341c-5.783,4.534-14.316,1.428-15.832-5.762l-8.803-41.771     l85.639-235.292c1.921-5.278,7.757-8,13.036-6.079l39.113,14.236c5.278,1.921,8,7.757,6.079,13.036L354.301,398.509z"/>
			<path style="fill:#DD8D19;" d="M433.861,150.181l-15.352-5.588c1.135,0.413,0.497,5.027-1.424,10.305l-85.639,235.292     l-16.953,32.397c-1.459,2.789-2.647,4.016-3.302,3.777c3.046,1.109,6.625,0.751,9.516-1.516l33.593-26.34l85.639-235.293     C441.861,157.938,439.14,152.102,433.861,150.181z"/>
			<path style="fill:#656D88;" d="M320.707,424.85l33.593-26.34l-58.228-21.193l8.803,41.771     C306.391,426.278,314.924,429.384,320.707,424.85z"/>
			<path style="fill:#2E344C;" d="M354.301,398.509l-22.854-8.318l-16.953,32.397c-1.459,2.789-2.647,4.016-3.302,3.777     c2.151,0.783,4.565,0.816,6.819-0.02c0.937-0.347,1.848-0.83,2.697-1.495L354.301,398.509z"/>
		</g>
	</g>
	<g>
		<path d="M99.395,188.05c3.964-1.199,6.207-5.385,5.007-9.35c-2.557-8.455-3.854-17.268-3.854-26.194v-27.185    c12.726,4.292,25.993,6.471,39.584,6.471c32.02,0,62.822-12.458,85.862-34.463c13.878,17.344,33.394,28.984,55.228,32.941v22.235    c0,49.812-40.525,90.337-90.337,90.337c-29.56,0-57.302-14.507-74.209-38.808c-2.366-3.4-7.038-4.239-10.44-1.873    c-3.4,2.366-4.238,7.04-1.873,10.44c19.71,28.328,52.055,45.24,86.522,45.24c58.083,0,105.337-47.254,105.337-105.337v-28.702    v-18.468c0-0.939-0.013-1.875-0.038-2.808c-0.005-0.203-0.017-0.405-0.023-0.608c-0.024-0.742-0.051-1.482-0.09-2.22    c-0.01-0.179-0.023-0.356-0.034-0.535c-0.045-0.771-0.095-1.54-0.156-2.306c-0.01-0.13-0.024-0.26-0.035-0.39    c-0.069-0.822-0.146-1.641-0.233-2.457c-0.009-0.08-0.019-0.16-0.028-0.24c-0.096-0.874-0.202-1.744-0.319-2.611    c-0.004-0.03-0.008-0.059-0.012-0.089c-1.408-10.355-4.324-20.238-8.523-29.416c-0.091-0.2-0.187-0.399-0.28-0.599    c-0.27-0.579-0.541-1.157-0.821-1.731c-0.181-0.372-0.368-0.742-0.554-1.112c-0.194-0.386-0.388-0.773-0.587-1.156    c-0.252-0.487-0.509-0.971-0.768-1.454c-0.134-0.249-0.267-0.497-0.403-0.745c-0.319-0.582-0.643-1.161-0.973-1.738    c-0.07-0.121-0.14-0.243-0.21-0.364c-5.832-10.104-13.362-19.286-22.404-27.099c-0.1-0.095-0.202-0.188-0.307-0.278    c-0.151-0.129-0.304-0.254-0.458-0.378l-0.134-0.109c-0.286-0.241-0.578-0.472-0.866-0.711c-0.1-0.083-0.2-0.164-0.301-0.247    c-0.425-0.35-0.846-0.707-1.275-1.047c-0.344-0.274-0.691-0.543-1.038-0.812l-0.109-0.084c-0.351-0.271-0.707-0.531-1.06-0.797    c-0.176-0.133-0.352-0.266-0.528-0.397c-0.235-0.175-0.467-0.357-0.703-0.529c-0.452-0.33-0.905-0.657-1.367-0.983    c-0.464-0.328-0.934-0.644-1.402-0.963c-0.184-0.126-0.367-0.255-0.552-0.379c-0.064-0.043-0.127-0.088-0.19-0.131    c-0.529-0.354-1.059-0.708-1.604-1.06c-0.647-0.416-1.302-0.821-1.955-1.221l-0.077-0.047c-0.284-0.175-0.57-0.346-0.857-0.518    c-0.315-0.191-0.625-0.384-0.948-0.573c-0.161-0.094-0.325-0.184-0.487-0.276c-0.39-0.226-0.784-0.445-1.177-0.666l-0.132-0.074    c-0.007-0.004-0.014-0.008-0.02-0.011c-0.522-0.292-1.045-0.583-1.573-0.866c-0.177-0.096-0.348-0.195-0.527-0.29    c-0.247-0.131-0.497-0.257-0.747-0.383c-1.978-1.029-3.993-1.995-6.042-2.9c-0.043-0.019-0.085-0.037-0.128-0.056    c-0.819-0.361-1.644-0.711-2.474-1.051c-0.195-0.08-0.389-0.16-0.584-0.239c-0.649-0.262-1.303-0.515-1.958-0.764    c-0.313-0.119-0.625-0.242-0.939-0.358c-0.41-0.151-0.824-0.294-1.236-0.44c-7.753-2.759-15.763-4.574-23.977-5.431    c-0.219-0.023-0.438-0.046-0.658-0.068c-0.647-0.063-1.295-0.122-1.944-0.173c-0.369-0.03-0.739-0.055-1.11-0.081    c-0.545-0.037-1.091-0.075-1.638-0.104c-0.533-0.029-1.068-0.049-1.604-0.07c-0.413-0.016-0.825-0.036-1.239-0.047    C192.836,0.016,191.863,0,190.886,0C132.803,0,85.549,47.254,85.549,105.337v9.044v38.125c0,10.398,1.513,20.672,4.496,30.537    C91.244,187.008,95.428,189.248,99.395,188.05z M100.549,105.337c0-49.812,40.525-90.337,90.337-90.337    c0.838,0,1.673,0.014,2.506,0.036c0.354,0.01,0.707,0.027,1.061,0.04c0.458,0.018,0.916,0.036,1.373,0.06    c0.471,0.026,0.94,0.057,1.409,0.09c0.316,0.022,0.632,0.044,0.948,0.069c0.558,0.045,1.114,0.094,1.669,0.149    c0.188,0.019,0.377,0.039,0.565,0.058c5.198,0.548,10.267,1.535,15.166,2.929c0.006,0.002,0.013,0.004,0.019,0.005    c1.701,0.484,3.379,1.023,5.037,1.604c0.481,0.169,0.963,0.336,1.442,0.513c0.203,0.075,0.404,0.155,0.607,0.231    c0.639,0.242,1.276,0.488,1.91,0.745c0.102,0.041,0.204,0.083,0.305,0.125c2.419,0.991,4.807,2.089,7.161,3.3l0.488,0.248    c0.013,0.006,0.024,0.012,0.037,0.019c0.283,0.148,0.566,0.297,0.847,0.447c0.475,0.258,0.948,0.519,1.419,0.783l0.424,0.237    c0.29,0.162,0.575,0.324,0.859,0.487c0.278,0.162,0.554,0.327,0.831,0.492c0.313,0.189,0.627,0.377,0.939,0.569l0.132,0.081    c0.538,0.33,1.073,0.661,1.595,0.996c0.406,0.261,0.807,0.529,1.208,0.796c0.083,0.056,0.167,0.11,0.251,0.166    c0.472,0.316,0.938,0.639,1.402,0.963c0.185,0.129,0.372,0.255,0.557,0.386c0.11,0.078,0.221,0.159,0.331,0.238    c0.355,0.255,0.708,0.513,1.059,0.773c0.38,0.28,0.754,0.563,1.126,0.847c0.731,0.558,1.454,1.126,2.167,1.705    c0.318,0.259,0.635,0.517,0.947,0.778c0.429,0.358,0.857,0.716,1.279,1.082c0.025,0.021,0.049,0.043,0.074,0.065    c6.991,6.069,13.041,13.193,17.905,21.12c0.084,0.137,0.17,0.273,0.253,0.411c0.256,0.423,0.507,0.85,0.756,1.278    c0.153,0.263,0.307,0.526,0.458,0.791c0.198,0.347,0.392,0.696,0.585,1.045c0.202,0.365,0.402,0.732,0.599,1.1    c0.144,0.27,0.287,0.541,0.429,0.812c0.248,0.476,0.492,0.953,0.731,1.433c0.09,0.181,0.181,0.361,0.27,0.542    c0.303,0.618,0.599,1.238,0.888,1.863c0.025,0.053,0.05,0.106,0.074,0.159c3.686,8.018,6.194,16.573,7.404,25.409    c0.002,0.015,0.004,0.029,0.006,0.044c0.103,0.755,0.195,1.511,0.279,2.27c0.007,0.066,0.015,0.131,0.023,0.197    c0.076,0.703,0.142,1.408,0.202,2.115c0.01,0.114,0.021,0.228,0.031,0.343c0.053,0.657,0.096,1.316,0.135,1.976    c0.009,0.157,0.022,0.313,0.03,0.471c0.034,0.64,0.058,1.281,0.079,1.923c0.005,0.169,0.015,0.338,0.019,0.507    c0.021,0.804,0.033,1.61,0.033,2.417v9.668c-19.688-4.295-36.909-16.156-48.089-33.383c-1.269-1.955-3.374-3.209-5.697-3.394    c-2.33-0.183-4.601,0.722-6.162,2.452c-20.711,22.95-50.287,36.112-81.142,36.112c-13.663,0-26.956-2.493-39.584-7.416V105.337z"/>
		<path d="M190.889,221.249c14.359,0,27.998-7.515,36.483-20.104c2.315-3.435,1.408-8.096-2.026-10.411    c-3.435-2.316-8.096-1.407-10.411,2.026c-5.779,8.572-14.543,13.488-24.046,13.488c-9.5,0-18.27-4.918-24.06-13.493    c-2.318-3.434-6.98-4.336-10.413-2.019c-3.433,2.318-4.337,6.98-2.019,10.413C162.895,213.735,176.537,221.249,190.889,221.249z"/>
		<path d="M448.261,501.777l-49.972-128.226c-1.504-3.859-5.852-5.769-9.711-4.265c-3.859,1.504-5.769,5.852-4.265,9.711L430.3,497    H161.845l4.44-11.393c0.047-0.107,0.086-0.218,0.128-0.328l24.367-62.526c0.03-0.071,0.056-0.143,0.084-0.215l15.107-38.764    h59.346c4.142,0,7.5-3.358,7.5-7.5s-3.358-7.5-7.5-7.5H231.71l-20.568-69.914h14.195c21.751,0,42.699,9.17,57.471,25.16    c2.811,3.042,7.556,3.23,10.598,0.419c3.042-2.811,3.23-7.556,0.419-10.598c-17.603-19.053-42.566-29.981-68.489-29.981h-24.22    h-20.46h-24.22c-51.396,0-93.21,41.814-93.21,93.21v105.55c0,4.142,3.358,7.5,7.5,7.5h77.7l-4.543,11.656    c-0.899,2.308-0.601,4.911,0.796,6.956c1.398,2.045,3.715,3.268,6.192,3.268h290.399c2.477,0,4.794-1.223,6.192-3.268    C448.862,506.688,449.16,504.084,448.261,501.777z M195.506,298.86l20.568,69.914h-15.229c-3.091,0-5.866,1.896-6.988,4.777    l-12.737,32.682l-20.327-20.811l25.475-86.563H195.506z M78.227,475.12v-98.05c0-43.125,35.085-78.21,78.21-78.21h14.194    l-25.469,86.542c-0.766,2.604-0.066,5.417,1.83,7.358l28.148,28.817l-20.867,53.542H78.227z"/>
		<path d="M200.379,453.651c0,4.142,3.358,7.5,7.5,7.5h176.387c4.142,0,7.5-3.358,7.5-7.5s-3.358-7.5-7.5-7.5H207.879    C203.737,446.151,200.379,449.509,200.379,453.651z"/>
		<path d="M289,374.839c-0.066,0.188-0.114,0.382-0.165,0.575c-0.035,0.135-0.079,0.268-0.107,0.404    c-0.042,0.206-0.064,0.416-0.088,0.625c-0.015,0.127-0.04,0.253-0.048,0.38c-0.015,0.234-0.008,0.471-0.001,0.707    c0.003,0.104-0.005,0.208,0.002,0.313c0.024,0.34,0.07,0.68,0.142,1.019l8.803,41.772c1.25,5.929,5.396,10.707,11.09,12.779    c1.959,0.713,3.983,1.063,5.99,1.063c3.827,0,7.59-1.272,10.718-3.725l33.594-26.34c0.273-0.214,0.527-0.445,0.764-0.69    c0.07-0.073,0.129-0.155,0.196-0.231c0.16-0.179,0.32-0.358,0.461-0.551c0.073-0.1,0.132-0.208,0.2-0.311    c0.119-0.18,0.239-0.358,0.341-0.547c0.065-0.12,0.115-0.246,0.174-0.369c0.087-0.183,0.175-0.365,0.247-0.555    c0.011-0.029,0.026-0.054,0.037-0.083l58.855-161.703c1.417-3.892-0.59-8.196-4.483-9.613c-3.89-1.416-8.196,0.59-9.613,4.483    l-56.29,154.655l-44.133-16.063l83.075-228.245c0.503-1.384,2.041-2.099,3.422-1.596l39.114,14.236    c0.904,0.329,1.333,1.006,1.507,1.38c0.175,0.375,0.418,1.138,0.089,2.042l-16.531,45.419c-1.417,3.892,0.59,8.196,4.483,9.613    c3.89,1.416,8.196-0.59,9.613-4.483l16.531-45.419c1.615-4.436,1.405-9.234-0.589-13.512c-1.995-4.278-5.536-7.523-9.972-9.137    l-39.113-14.236c-4.435-1.614-9.234-1.405-13.511,0.59c-4.278,1.995-7.523,5.536-9.137,9.972l-85.64,235.292    C289.014,374.78,289.01,374.81,289,374.839z M313.756,419.317c-0.472-0.172-1.301-0.631-1.542-1.776l-6.018-28.559l32.851,11.957    l-22.968,18.009C315.158,419.668,314.228,419.49,313.756,419.317z"/>
	</g>
</g>















</svg>
