<svg height="512" viewBox="0 0 512 512" width="512" xmlns="http://www.w3.org/2000/svg"><g id="filled_outline" data-name="filled outline"><path d="m320 360v8h-256v-8l-16-32v-8h288v8z" fill="#8aced8"/><path d="m392 160h96v200h-96z" fill="#eaeae8" transform="matrix(-1 0 0 -1 880 520)"/><circle cx="192" cy="104" fill="#cbcbcb" r="24"/><path d="m336 304h-288v-40a144 144 0 0 1 144-144 144 144 0 0 1 144 144z" fill="#dbdbdb"/><path d="m304 272a8 8 0 0 1 -8-8 104.137 104.137 0 0 0 -44.578-85.359 8 8 0 1 1 9.156-13.125 120.166 120.166 0 0 1 51.422 98.484 8 8 0 0 1 -8 8z" fill="#eaeae8"/><path d="m224 164.641a8.1 8.1 0 0 1 -2.289-.336 102.348 102.348 0 0 0 -14.844-3.25 8 8 0 0 1 2.266-15.844 119.358 119.358 0 0 1 17.156 3.766 8 8 0 0 1 -2.289 15.664z" fill="#eaeae8"/><circle cx="392" cy="160" fill="#fbb540" r="32"/><path d="m392 192a32 32 0 0 0 32-32h-32z" fill="#ea9d2d"/><path d="m456 224a8 8 0 0 1 -8-8v-128a7.992 7.992 0 0 1 3.2-6.4l32-24a8 8 0 1 1 9.6 12.8l-28.8 21.6v124a8 8 0 0 1 -8 8z" fill="#d9d9d9"/><path d="m488 440h-232-232v-80h464z" fill="#985713"/><path d="m488 440h-232-232v-24h464z" fill="#834b10"/><path d="m392 216h96v144h-96z" fill="#fd9226"/><path d="m424 248h32v32h-32z" fill="#e28222" transform="matrix(-.956 -.292 .292 -.956 783.7 645.007)"/><path d="m424 288h32v32h-32z" fill="#e28222" transform="matrix(-.883 .47 -.47 -.883 971.234 365.693)"/><rect fill="#b8eaee" height="32" rx="16" width="336" x="24" y="296"/><path d="m260.578 165.516a8 8 0 1 0 -9.156 13.125 104.137 104.137 0 0 1 44.578 85.359 8 8 0 0 0 16 0 120.166 120.166 0 0 0 -51.422-98.484z"/><path d="m226.289 148.977a119.358 119.358 0 0 0 -17.156-3.766 8 8 0 0 0 -2.266 15.844 102.348 102.348 0 0 1 14.844 3.25 8.1 8.1 0 0 0 2.289.336 8 8 0 0 0 2.289-15.664z"/><path d="m488 152h-24v-60l28.8-21.6a8 8 0 1 0 -9.6-12.8l-32 24a7.992 7.992 0 0 0 -3.2 6.4v64h-16.809a40 40 0 1 0 -47.191 47.191v152.809h-51.055l8-16h3.055a24 24 0 0 0 0-48v-24c0-73.568-52.548-135.066-122.074-149.009a32 32 0 1 0 -59.852 0c-69.526 13.943-122.074 75.441-122.074 149.009v24a24 24 0 0 0 0 48h3.055l8 16h-27.055a8 8 0 0 0 -8 8v80a8 8 0 0 0 8 8h464a8 8 0 0 0 8-8v-280a8 8 0 0 0 -8-8zm-56.809 16h16.809v40h-48v-8.809a40.117 40.117 0 0 0 31.191-31.191zm-31.191 14.526v-14.526h14.526a23.97 23.97 0 0 1 -14.526 14.526zm-32-22.526a23.941 23.941 0 0 1 46.526-8h-22.526a8 8 0 0 0 -8 8v22.525a23.959 23.959 0 0 1 -16-22.525zm-176-72a15.959 15.959 0 0 1 13.407 24.679c-4.426-.389-8.882-.679-13.407-.679s-8.981.29-13.407.679a15.959 15.959 0 0 1 13.407-24.679zm-136 176c0-74.992 61.008-136 136-136s136 61.008 136 136v24h-272zm-16 56a8 8 0 0 1 0-16h304a8 8 0 0 1 0 16zm283.055 16-8 16h-246.11l-8-16zm156.945 96h-448v-64h448zm0-80h-80v-128h80zm0-144h-16v-40h16z"/><path d="m411.3 301.148 15.031 28.25a7.992 7.992 0 0 0 7.07 4.243 7.911 7.911 0 0 0 3.75-.938l28.25-15.031a8 8 0 0 0 3.3-10.82l-10.668-20.052c.066-.172.186-.307.24-.486l9.352-30.6a7.988 7.988 0 0 0 -5.313-9.984l-30.6-9.352a8 8 0 0 0 -9.984 5.312l-9.352 30.6a7.988 7.988 0 0 0 5.312 9.984l7.656 2.34-10.744 5.714a8 8 0 0 0 -3.3 10.82zm23.39-47.132 15.3 4.671-4.672 15.3-15.3-4.672zm8.618 39.164 7.515 14.125-14.123 7.515-7.52-14.12z"/></g></svg>