<svg id="Layer_3" enable-background="new 0 0 64 64" height="512" viewBox="0 0 64 64" width="512" xmlns="http://www.w3.org/2000/svg"><path d="m46 2c12.911 0 20.486 14.229 13.099 24.604l-13.099 17.396-13.099-17.396c-7.387-10.375.188-24.604 13.099-24.604z" fill="#e0747c"/><path d="m2 58h50v4h-50z" fill="#645b54"/><path d="m2 58h47v4h-47z" fill="#857970"/><path d="m46 44-13.099-17.396c-1.931-2.712-2.831-5.688-2.889-8.604h-26.012v40h46v-19.312z" fill="#f8e8ce"/><circle cx="46" cy="18" fill="#baae9b" r="12"/><ellipse cx="44.5" cy="18" fill="#f8e8ce" rx="10.5" ry="11.896"/><ellipse cx="50" cy="17" fill="#c8af8f" rx="2" ry="3"/><path d="m7 30c-2.761 0-5-2.239-5-5v-7h10v7c0 2.761-2.239 5-5 5z" fill="#a3a752"/><path d="m5.5 29.746c2.023-.641 3.5-2.511 3.5-4.746v-7h-7v7c0 2.235 1.477 4.105 3.5 4.746z" fill="#d9de6d"/><path d="m17 30c-2.761 0-5-2.239-5-5v-7h10v7c0 2.761-2.239 5-5 5z" fill="#a3a752"/><path d="m15.5 29.746c2.023-.64 3.5-2.51 3.5-4.746v-7h-7v7c0 2.235 1.477 4.105 3.5 4.746z" fill="#d9de6d"/><path d="m8 34h14v4h-14z" fill="#96836b"/><path d="m8 34h11v4h-11z" fill="#c8af8f"/><path d="m8 42h14v16h-14z" fill="#96836b"/><path d="m8 42h11v16h-11z" fill="#c8af8f"/><path d="m30.011 18h-8.011v7c0 2.761 2.239 5 5 5 2.711 0 4.906-2.162 4.985-4.854-1.299-2.303-1.926-4.743-1.974-7.146z" fill="#a3a752"/><path d="m25.501 29.746c1.974-.627 3.421-2.431 3.485-4.6-1.299-2.303-1.926-4.743-1.974-7.146h-5.012v7c0 2.235 1.477 4.106 3.501 4.746z" fill="#d9de6d"/><path d="m26 38v14h20v-8l-4.518-6z" fill="#7194a3"/><path d="m38.482 38h-12.482v14h17v-8z" fill="#96c5da"/><path d="m49 38.688h2v19.312h-2z"/><path d="m3 29h2v29h-2z"/><path d="m27 31c-3.309 0-6-2.691-6-6v-7h2v7c0 2.206 1.794 4 4 4s4-1.794 4-4h2c0 3.309-2.691 6-6 6z"/><path d="m17 31c-3.309 0-6-2.691-6-6v-7h2v7c0 2.206 1.794 4 4 4s4-1.794 4-4h2c0 3.309-2.691 6-6 6z"/><path d="m7 31c-3.309 0-6-2.691-6-6v-7c0-.552.447-1 1-1h28v2h-17v6c0 3.309-2.691 6-6 6zm-4-12v6c0 2.206 1.794 4 4 4s4-1.794 4-4v-6z"/><path d="m23 58h-2v-15h-12v15h-2v-16c0-.553.447-1 1-1h14c.553 0 1 .447 1 1z"/><path d="m46 53h-20c-.553 0-1-.447-1-1v-14c0-.553.447-1 1-1h16v2h-15v12h18v-7h2v8c0 .553-.447 1-1 1z"/><path d="m52 63h-50c-.553 0-1-.447-1-1v-4c0-.553.447-1 1-1h50c.553 0 1 .447 1 1v4c0 .553-.447 1-1 1zm-49-2h48v-2h-48z"/><path d="m46 45c-.314 0-.61-.147-.799-.398l-13.1-17.396c-3.655-5.133-4.116-11.505-1.249-17.066 2.907-5.638 8.711-9.14 15.148-9.14s12.241 3.502 15.147 9.14c2.867 5.561 2.406 11.933-1.233 17.044l-13.115 17.418c-.189.251-.485.398-.799.398zm0-42c-5.771 0-10.77 3.012-13.37 8.056-2.518 4.883-2.111 10.478 1.085 14.968l12.285 16.314 12.301-16.335c3.181-4.468 3.587-10.063 1.069-14.946-2.6-5.045-7.599-8.057-13.37-8.057z"/><path d="m22 39h-14c-.553 0-1-.447-1-1v-4c0-.553.447-1 1-1h14c.553 0 1 .447 1 1v4c0 .553-.447 1-1 1zm-13-2h12v-2h-12z"/><path d="m46 31c-7.168 0-13-5.832-13-13s5.832-13 13-13 13 5.832 13 13-5.832 13-13 13zm0-24c-6.065 0-11 4.935-11 11s4.935 11 11 11 11-4.935 11-11-4.935-11-11-11z"/><path d="m43 21h-2c-1.103 0-2-.897-2-2v-6h2v6h2v-6h2v6c0 1.103-.897 2-2 2z"/><path d="m41 20h2v9h-2z"/><path d="m49 20h2v9h-2z"/><path d="m50 21c-1.683 0-3-1.757-3-4s1.317-4 3-4 3 1.757 3 4-1.317 4-3 4zm0-6c-.408 0-1 .779-1 2s.592 2 1 2 1-.779 1-2-.592-2-1-2z"/></svg>