<?xml version="1.0" encoding="iso-8859-1"?>
<!-- Generator: Adobe Illustrator 19.0.0, SVG Export Plug-In . SVG Version: 6.00 Build 0)  -->
<svg version="1.1" id="Capa_1" xmlns="http://www.w3.org/2000/svg" xmlns:xlink="http://www.w3.org/1999/xlink" x="0px" y="0px"
	 viewBox="0 0 512 512" style="enable-background:new 0 0 512 512;" xml:space="preserve">
<circle style="fill:#2896FF;" cx="256" cy="256" r="256"/>
<path style="fill:#1E73BE;" d="M274.868,144.089c-29.8,0-55.735,16.53-69.146,40.92c-8.959-4.758-19.175-7.464-30.027-7.464
	c-35.415,0-64.124,28.709-64.124,64.124c0,2.619,0.175,5.196,0.48,7.732c-24.771,3.674-43.779,25.022-43.779,50.815
	c0,14.188,5.751,27.033,15.049,36.331L258.74,511.965c112.308-1.18,207.267-74.665,240.544-176.124L333.449,170.006l-0.079,0.079
	C318.939,154.125,298.079,144.089,274.868,144.089z"/>
<g>
	<path style="fill:#FFFFFF;" d="M194.664,256.58c2.628-15.947,10.23-30.618,21.979-42.11c14.365-14.051,33.346-21.79,53.445-21.79
		c13.253,0,26.315,3.449,37.774,9.974c7.879,4.486,14.915,10.366,20.743,17.287c7.809-3.212,16.192-4.896,24.725-4.947
		c-3.989-39.817-37.595-70.904-78.463-70.904c-29.799,0-55.735,16.53-69.146,40.92c-8.959-4.758-19.175-7.464-30.027-7.464
		c-35.415,0-64.124,28.709-64.124,64.124c0,2.619,0.175,5.196,0.481,7.733c-24.771,3.674-43.779,25.023-43.779,50.815
		c0,28.376,23.003,51.379,51.379,51.379h33.872c-6.362-9.747-10.076-21.372-10.076-33.854
		C143.447,287.207,165.593,261.748,194.664,256.58z"/>
	<path style="fill:#FFFFFF;" d="M443.727,327.3c0-20.921-15.821-38.14-36.15-40.363c0.206-1.919,0.318-3.865,0.318-5.838
		c0-29.915-24.251-54.167-54.167-54.167c-10.573,0-20.431,3.04-28.768,8.278c-11.376-18.353-31.692-30.582-54.871-30.582
		c-35.105,0-63.641,28.041-64.482,62.943c-0.013,0-0.026-0.001-0.04-0.001c-27.708,0-50.17,22.462-50.17,50.17
		s22.462,50.17,50.17,50.17h202.329v-0.289C428.07,365.255,443.727,348.111,443.727,327.3z"/>
</g>
<g>
</g>
<g>
</g>
<g>
</g>
<g>
</g>
<g>
</g>
<g>
</g>
<g>
</g>
<g>
</g>
<g>
</g>
<g>
</g>
<g>
</g>
<g>
</g>
<g>
</g>
<g>
</g>
<g>
</g>
</svg>
