<?xml version="1.0" encoding="iso-8859-1"?>
<!-- Generator: Adobe Illustrator 21.0.0, SVG Export Plug-In . SVG Version: 6.00 Build 0)  -->
<svg xmlns="http://www.w3.org/2000/svg" xmlns:xlink="http://www.w3.org/1999/xlink" version="1.1" id="Capa_1" x="0px" y="0px" viewBox="0 0 511.969 511.969" style="enable-background:new 0 0 511.969 511.969;" xml:space="preserve" width="512" height="512">
<g>
	<g>
		<rect x="199.665" y="369.856" style="fill:#3E4151;" width="28.55" height="62.763"/>
		<rect x="199.665" y="369.856" style="fill:#353744;" width="16.62" height="62.763"/>
		<path style="fill:#525468;" d="M389.497,54.874H38.382c-17.057,0-30.935,14.358-30.935,32.005c0,6.834,0,249.217,0,256.171    c0,17.648,13.877,32.005,30.935,32.005h351.115c17.058,0,30.935-14.358,30.935-32.005c0-6.834,0-249.217,0-256.171    C420.432,69.232,406.555,54.874,389.497,54.874z"/>
		<path style="fill:#3E4151;" d="M24.068,343.05c0-6.954,0-249.337,0-256.171c0-17.648,13.877-32.005,30.935-32.005h-16.62    c-17.057,0-30.935,14.357-30.935,32.005c0,6.834,0,249.217,0,256.171c0,17.648,13.877,32.005,30.935,32.005h16.62    C37.945,375.056,24.068,360.698,24.068,343.05z"/>
		<path style="fill:#B4E1F9;" d="M389.497,86.093H38.382c-1.27,0-2.385,1.127-2.385,2.411c0,6.314,0,243.443,0,250.364    c0,1.284,1.114,2.411,2.385,2.411h351.115c1.271,0,2.385-1.127,2.385-2.411c0-7.201,0-246.963,0-250.364    C391.882,87.219,390.768,86.093,389.497,86.093z"/>
		<path style="fill:#72BDF6;" d="M52.618,338.868c0-6.921,0-244.05,0-250.364c0-1.285,1.114-2.411,2.385-2.411h-16.62    c-1.27,0-2.385,1.127-2.385,2.411c0,6.314,0,243.443,0,250.364c0,1.285,1.114,2.411,2.385,2.411h16.62    C53.732,341.28,52.618,340.153,52.618,338.868z"/>
		<path style="fill:#525468;" d="M301.146,428.242H126.734c-7.652,0-13.855,6.417-13.855,14.334v0.87    c0,7.917,6.203,14.334,13.855,14.334h174.412c7.652,0,13.855-6.417,13.855-14.334v-0.87    C315,434.659,308.797,428.242,301.146,428.242z"/>
		<path style="fill:#3E4151;" d="M301.146,440.584H126.734c-4.718,0-8.879-2.445-11.381-6.171c-1.556,2.317-2.473,5.128-2.473,8.163    v0.87c0,7.917,6.203,14.334,13.855,14.334h174.412c7.652,0,13.855-6.417,13.855-14.334v-0.87c0-3.035-0.918-5.845-2.473-8.163    C310.025,438.14,305.864,440.584,301.146,440.584z"/>
		<path style="fill:#4B98D4;" d="M389.497,84.412H38.382c-1.27,0-2.385,1.127-2.385,2.411c0,1.227,0,11.176,0,26.457h355.884    c0-15.722,0-25.78,0-26.457C391.882,85.539,390.768,84.412,389.497,84.412z"/>
		<path style="fill:#ED5454;" d="M64.547,84.412H38.382c-1.27,0-2.385,1.127-2.385,2.411c0,1.227,0,11.176,0,26.457h28.55V84.412z"/>
		<path style="fill:#EA3F3F;" d="M54.968,84.412H38.382c-1.27,0-2.385,1.127-2.385,2.411c0,1.227,0,11.176,0,26.457h16.586    c0-15.28,0-25.229,0-26.457C52.583,85.539,53.697,84.412,54.968,84.412z"/>
		<path style="fill:#E4E3E1;" d="M494.467,416.249H239.216c-5.472,0-9.95,5.022-9.95,11.16v19.211c0,6.138,4.477,11.16,9.95,11.16    h255.251c5.472,0,9.95-5.022,9.95-11.16v-19.211C504.416,421.271,499.939,416.249,494.467,416.249z"/>
		<path style="fill:#C1C1C1;" d="M503.572,422.94v3.759c0,6.138-4.477,11.16-9.949,11.16H238.372c-4.057,0-7.561-2.763-9.106-6.691    v15.452c0,6.138,4.477,11.16,9.95,11.16h255.251c5.472,0,9.949-5.022,9.949-11.16v-19.211    C504.416,425.821,504.112,424.311,503.572,422.94z"/>
		<path style="fill:#C1C1C1;" d="M330.618,416.249v12.845c0,4.953,2.747,8.969,6.135,8.969h60.176c3.388,0,6.135-4.015,6.135-8.969    v-12.845H330.618z"/>
		<path style="fill:#AFAFAF;" d="M350.618,429.094v-12.845h-20v12.845c0,4.953,2.747,8.969,6.135,8.969h20    C353.365,438.063,350.618,434.047,350.618,429.094z"/>
		<path style="fill:#525468;" d="M468.043,232.042H265.639c-9.833,0-17.833,8.26-17.833,18.413c0,3.932,0,143.38,0,147.381    c0,10.153,8,18.413,17.833,18.413h202.404c9.833,0,17.833-8.26,17.833-18.413c0-3.932,0-143.38,0-147.381    C485.876,240.302,477.876,232.042,468.043,232.042z"/>
		<path style="fill:#3E4151;" d="M267.807,397.836c0-4.001,0-143.449,0-147.381c0-10.153,8-18.413,17.833-18.413h-20    c-9.833,0-17.833,8.26-17.833,18.413c0,3.932,0,143.38,0,147.381c0,10.153,8,18.413,17.833,18.413h20    C275.807,416.249,267.807,407.989,267.807,397.836z"/>
		<path style="fill:#9AD14B;" d="M458.677,257.911H275.006c-0.708,0-1.329,0.64-1.329,1.369c0,3.584,0,125.801,0,129.73    c0,0.729,0.621,1.369,1.329,1.369h183.671c0.708,0,1.329-0.64,1.329-1.369c0-4.088,0-127.799,0-129.73    C460.006,258.551,459.385,257.911,458.677,257.911z"/>
		<path style="fill:#76AB29;" d="M293.677,389.011c0-3.929,0-126.146,0-129.73c0-0.729,0.621-1.369,1.329-1.369h-20    c-0.708,0-1.329,0.64-1.329,1.369c0,3.584,0,125.801,0,129.73c0,0.729,0.621,1.369,1.329,1.369h20    C294.298,390.38,293.677,389.74,293.677,389.011z"/>
		<path style="fill:#4B98D4;" d="M460.006,284.795c0-14.656,0-24.739,0-25.316c0-0.835-0.621-1.568-1.329-1.568H275.006    c-0.708,0-1.329,0.733-1.329,1.568c0,1.051,0,11.013,0,25.316H460.006z"/>
		<path style="fill:#ED5454;" d="M308.184,257.911h-32.788c-0.916,0-1.719,0.733-1.719,1.568c0,1.051,0,11.013,0,25.316h34.507    V257.911z"/>
		<path style="fill:#EA3F3F;" d="M275.396,257.911c-0.916,0-1.719,0.733-1.719,1.568c0,1.051,0,11.013,0,25.316h20    c0-14.298,0-24.516,0-25.515c0-0.729,0.621-1.368,1.329-1.369H275.396z"/>
		<path style="fill:#525468;" d="M132.831,316.266c0-8.378,0-14.221,0-16.006c0-5.165-4.187-9.352-9.352-9.352H47.452    c-5.165,0-9.352,4.187-9.352,9.352c0,1.786,0,7.628,0,16.006H132.831z"/>
		<path style="fill:#3E4151;" d="M67.452,290.907h-20c-5.165,0-9.352,4.187-9.352,9.352c0,1.786,0,7.628,0,16.006h20    c0-8.378,0-14.221,0-16.006C58.1,295.094,62.287,290.907,67.452,290.907z"/>
		<path style="fill:#525468;" d="M38.1,418.614c0,17.249,0,29.438,0,29.814c0,5.198,4.225,9.352,9.352,9.352h76.028    c5.144,0,9.352-4.171,9.352-9.352c0-0.376,0-12.565,0-29.814H38.1z"/>
		<path style="fill:#3E4151;" d="M58.1,448.428c0-0.376,0-12.565,0-29.814h-20c0,17.249,0,29.438,0,29.814    c0,5.198,4.225,9.352,9.352,9.352h20C62.325,457.78,58.1,453.625,58.1,448.428z"/>
		<path style="fill:#FFC964;" d="M38.1,420.142h94.731c0-30.527,0-75.536,0-105.404H38.1C38.1,344.606,38.1,389.614,38.1,420.142z"/>
		<path style="fill:#F3A334;" d="M38.1,420.142h20c0-30.527,0-75.536,0-105.404h-20C38.1,344.606,38.1,389.614,38.1,420.142z"/>
		<path style="fill:#4B98D4;" d="M38.1,337.892h94.731c0-6.706,0-16.593,0-23.155H38.1C38.1,321.299,38.1,331.186,38.1,337.892z"/>
		<path style="fill:#ED5454;" d="M38.1,337.892H64.67c0-6.706,0-16.593,0-23.155H38.1C38.1,321.299,38.1,331.186,38.1,337.892z"/>
		<path style="fill:#EA3F3F;" d="M38.1,337.892h20c0-6.706,0-16.593,0-23.155h-20C38.1,321.299,38.1,331.186,38.1,337.892z"/>
	</g>
	<g>
		<path d="M86.989,431.012c-4.614-0.921-8.971,2.623-8.971,7.351c0,4.14,3.361,7.5,7.5,7.5c4.194,0,7.5-3.412,7.5-7.5    C93.019,434.998,90.754,431.818,86.989,431.012z"/>
		<path d="M493.309,408.407h-3.03c2.007-3.845,3.149-8.21,3.149-12.839v-52.095c0-4.143-3.357-7.5-7.5-7.5s-7.5,3.357-7.5,7.5    v52.095c0,7.079-5.76,12.839-12.839,12.839c-7.423,0-189.944,0-197.391,0c-7.079,0-12.839-5.76-12.839-12.839V252.039    c0-7.079,5.76-12.839,12.839-12.839c4.06,0,187.55,0,197.391,0c7.079,0,12.839,5.76,12.839,12.839v56.435    c0,4.143,3.357,7.5,7.5,7.5s7.5-3.357,7.5-7.5v-56.435c0-15.351-12.488-27.839-27.839-27.839h-37.605V87.746    c0-22.45-18.264-40.714-40.713-40.714H231.492c-4.143,0-7.5,3.357-7.5,7.5s3.357,7.5,7.5,7.5h155.778    c14.178,0,25.713,11.535,25.713,25.714V224.2h-15.652c0-4.785,0-129.998,0-136.454c0-5.548-4.513-10.061-10.061-10.061    c-9.139,0-336.942,0-346.558,0c-5.548,0-10.061,4.513-10.061,10.061c0,69.5,0,251.6,0,274.276    C21.438,358.069,15,348.87,15,338.377V87.746c0-14.179,11.535-25.714,25.713-25.714h155.779c4.143,0,7.5-3.357,7.5-7.5    s-3.357-7.5-7.5-7.5H40.713C18.264,47.032,0,65.295,0,87.746v250.632c0,18.76,13.001,34.898,30.652,39.428    c0,30.773,0,36.238,0,70.28c0,9.292,7.56,16.852,16.852,16.852c24.525,0,443.057,0,445.805,0c10.289,0,18.66-8.37,18.66-18.659    v-19.211C511.969,416.778,503.598,408.407,493.309,408.407z M395.616,423.407v5.346c0,0.81-0.659,1.468-1.469,1.468h-54.509    c-0.81,0-1.468-0.658-1.468-1.468v-5.346H395.616z M140.384,419.285V379.09h50.781v40.194H140.384z M140.384,364.09v-15.652    h99.975v15.652C228.755,364.09,150.509,364.09,140.384,364.09z M45.652,321.896h11.569v8.154H45.652V321.896z M72.222,321.896    h53.162v8.154H72.222V321.896z M125.384,306.896c-6.688,0-69.886,0-79.731,0v-6.979c0-0.766,0.468-1.425,1.132-1.707    c0.221-0.094,0.465-0.146,0.72-0.146h76.028c1.021,0,1.852,0.831,1.852,1.852V306.896z M45.652,345.05c10.342,0,73.125,0,79.731,0    c0,15.263,0,51.991,0,67.249H45.652C45.652,397.045,45.652,360.37,45.652,345.05z M206.165,379.09h15.653v40.194h-15.653V379.09z     M236.818,379.09h3.541v16.478c0,4.629,1.142,8.994,3.149,12.839h-3.031c-1.252,0-2.475,0.129-3.659,0.365V379.09z M268.198,224.2    c-1.919,0-3.793,0.195-5.604,0.567c-12.674,2.6-22.236,13.84-22.236,27.272v81.399h-99.975c0-18.672,0-14.622,0-33.521    c0-9.292-7.56-16.852-16.852-16.852H47.504c-0.606,0-1.204,0.036-1.794,0.098c-0.019,0.002-0.039,0.001-0.058,0.003V123.338    c12.109,0,323.172,0,336.679,0V224.2H268.198z M382.331,108.338H76.306V92.685h306.025V108.338z M45.652,92.685h15.653v15.653    H45.652V92.685z M45.652,448.085v-20.786h79.731v20.786c0,1.021-0.831,1.852-1.852,1.852H47.504    C46.483,449.937,45.652,449.106,45.652,448.085z M140.283,449.937c0.002-0.022,0.001-0.045,0.004-0.067    c0.062-0.587,0.097-1.181,0.097-1.784v-13.801c9.786,0,71.833,0,81.435,0v11.993c0,1.201,0.16,2.658,0.36,3.659H140.283z     M496.969,446.278c0,1.983-1.676,3.659-3.66,3.659h-252.83c-1.984,0-3.66-1.676-3.66-3.659v-19.014    c0.005-0.082,0.009-0.165,0.011-0.248c0-0.015-0.001-0.029-0.001-0.044c0.054-1.942,1.698-3.565,3.649-3.565    c15.89,0,66.773,0,82.693,0v5.346c0,9.08,7.388,16.468,16.468,16.468h54.509c9.081,0,16.469-7.388,16.469-16.468v-5.346    c15.915,0,66.802,0,82.692,0c1.984,0,3.66,1.676,3.66,3.66V446.278z"/>
		<path d="M458.49,250.07c-9.141,0-175.838,0-183.193,0c-5,0-9.068,4.067-9.068,9.067c0,1.474,0,127.985,0,129.332    c0,5,4.068,9.068,9.068,9.068H458.49c5,0,9.067-4.068,9.067-9.068c0-1.334,0-127.781,0-129.332    C467.558,254.137,463.49,250.07,458.49,250.07z M452.558,276.953H312.704V265.07h139.854V276.953z M281.229,265.07h16.476v11.883    h-16.476V265.07z M281.229,382.538v-90.585c6.511,0,159.472,0,171.329,0v90.585H281.229z"/>
	</g>
</g>















</svg>
