<svg height="512pt" viewBox="0 0 512 512" width="512pt" xmlns="http://www.w3.org/2000/svg"><path d="m512 256c0 141.386719-114.613281 256-256 256s-256-114.613281-256-256 114.613281-256 256-256 256 114.613281 256 256zm0 0" fill="#aeadb3"/><path d="m512 256c0-31.085938-5.546875-60.875-15.695312-88.441406l-67.058594-67.058594h-346.492188v311l84.804688 84.808594c27.5625 10.144531 57.355468 15.691406 88.441406 15.691406 141.386719 0 256-114.613281 256-256zm0 0" fill="#78777f"/><path d="m82.753906 100.5h346.492188v311h-346.492188zm0 0" fill="#fff"/><path d="m256 100.5h173.25v311h-173.25zm0 0" fill="#fff5cb"/><path d="m82.753906 100.5h346.492188v60.976562h-346.492188zm0 0" fill="#00ffea"/><path d="m256 100.5h173.25v60.96875h-173.25zm0 0" fill="#00ceb4"/><path d="m350.007812 305.859375v-41.550781h-17.847656c-1.769531-6.5-4.347656-12.664063-7.625-18.382813l12.625-12.625-29.378906-29.378906-12.625 12.625c-5.71875-3.273437-11.878906-5.855469-18.382812-7.625v-17.84375h-41.550782v17.84375c-6.5 1.769531-12.664062 4.351563-18.382812 7.625l-12.625-12.625-29.378906 29.378906 12.625 12.625c-3.273438 5.71875-5.855469 11.882813-7.625 18.382813h-17.84375v41.550781h17.84375c1.769531 6.5 4.351562 12.664063 7.625 18.382813l-12.625 12.625 29.378906 29.378906 12.625-12.625c5.71875 3.277344 11.882812 5.855468 18.382812 7.625v17.84375h41.550782v-17.84375c6.5-1.769532 12.664062-4.347656 18.382812-7.625l12.625 12.625 29.378906-29.378906-12.625-12.625c3.277344-5.71875 5.855469-11.878907 7.625-18.382813zm0 0" fill="#ab3ccc"/><path d="m332.160156 305.859375c-1.769531 6.5-4.351562 12.660156-7.621094 18.378906l12.621094 12.632813-29.378906 29.378906-12.621094-12.628906c-5.71875 3.277344-11.878906 5.859375-18.390625 7.628906v17.839844h-20.769531v-188.011719h20.769531v17.84375c6.511719 1.769531 12.671875 4.347656 18.390625 7.628906l12.621094-12.628906 29.378906 29.378906-12.621094 12.628907c3.269532 5.71875 5.851563 11.878906 7.621094 18.378906h17.851563v41.550781zm0 0" fill="#5c1b6f"/><path d="m311.398438 285.085938c0 30.59375-24.800782 55.398437-55.398438 55.398437s-55.398438-24.804687-55.398438-55.398437c0-30.597657 24.800782-55.402344 55.398438-55.402344s55.398438 24.804687 55.398438 55.402344zm0 0" fill="#ca80de"/><path d="m311.398438 285.078125c0 30.601563-24.796876 55.402344-55.398438 55.402344v-110.789063c30.601562 0 55.398438 24.796875 55.398438 55.386719zm0 0" fill="#b857cf"/><path d="m279.199219 285.085938c0 12.8125-10.386719 23.199218-23.199219 23.199218s-23.199219-10.386718-23.199219-23.199218 10.386719-23.199219 23.199219-23.199219 23.199219 10.386719 23.199219 23.199219zm0 0" fill="#ab3ccc"/><path d="m279.199219 285.078125c0 12.820313-10.390625 23.203125-23.199219 23.203125v-46.390625c12.808594 0 23.199219 10.378906 23.199219 23.1875zm0 0" fill="#5c1b6f"/><path d="m336.59375 130.988281c0 8.769531-7.113281 15.878907-15.882812 15.878907-8.769532 0-15.882813-7.109376-15.882813-15.878907 0-8.773437 7.113281-15.882812 15.882813-15.882812 8.769531 0 15.882812 7.109375 15.882812 15.882812zm0 0" fill="#ff328e"/><path d="m375.296875 130.988281c0 8.769531-7.109375 15.878907-15.878906 15.878907-8.773438 0-15.882813-7.109376-15.882813-15.878907 0-8.773437 7.109375-15.882812 15.882813-15.882812 8.769531 0 15.878906 7.109375 15.878906 15.882812zm0 0" fill="#9331b2"/><path d="m414.003906 130.988281c0 8.769531-7.109375 15.878907-15.882812 15.878907-8.769532 0-15.878906-7.109376-15.878906-15.878907 0-8.773437 7.109374-15.882812 15.878906-15.882812 8.773437 0 15.882812 7.109375 15.882812 15.882812zm0 0" fill="#ffaa20"/></svg>