<svg id="Capa_1" enable-background="new 0 0 510.776 510.776" height="512" viewBox="0 0 510.776 510.776" width="512" xmlns="http://www.w3.org/2000/svg"><path d="m407.738 167.349h-304.536c-4.538 0-8.217-3.679-8.217-8.217v-21.822c0-4.538 3.679-8.217 8.217-8.217h304.537c4.538 0 8.217 3.679 8.217 8.217v21.822c-.001 4.538-3.68 8.217-8.218 8.217z" fill="#9e5528"/><path d="m285.901 395.591c-10.509-29.824-8.32-106.634-8.32-106.634h-44.225s2.189 76.811-8.32 106.634z" fill="#fae2c0"/><path d="m172.532 422.928 4.343-15.114c4.352-15.145 18.206-25.579 33.964-25.579h89.263c15.758 0 29.612 10.434 33.964 25.579l4.343 15.114c.498 1.734-.803 3.461-2.607 3.461h-160.664c-1.803 0-3.105-1.728-2.606-3.461z" fill="#9e5528"/><path d="m335.803 426.388h-160.669c-1.8 0-3.095-1.728-2.602-3.466 0 0 3.731-12.982 3.733-12.988.726-2.527 54.871 0 59.104 0h43.8c14.536 0 30.018.727 24.466-18.576-.946-3.289-2.334-6.353-4.102-9.128h.566c15.765 0 29.616 10.438 33.966 25.585l4.34 15.106c.503 1.74-.803 3.467-2.602 3.467z" fill="#904d24"/><path d="m487.042 426.389h19.621c2.272 0 4.113-1.842 4.113-4.113v-159.104h-27.847v159.104c-.001 2.272 1.841 4.113 4.113 4.113z" fill="#fae2c0"/><path d="m383.086 426.389h19.621c2.272 0 4.113-1.842 4.113-4.113v-133.319h-27.847v133.319c-.001 2.272 1.841 4.113 4.113 4.113z" fill="#fae2c0"/><path d="m510.776 263.169v159.106c0 2.273-1.841 4.113-4.113 4.113h-13.924c2.273 0 4.113-1.841 4.113-4.113v-159.106z" fill="#fece85"/><path d="m406.814 288.96v133.315c0 2.273-1.841 4.113-4.113 4.113h-13.913c2.262 0 4.113-1.841 4.113-4.113v-133.315z" fill="#fece85"/><path d="m468.275 231.911v-138.225c0-5.851 4.743-10.594 10.594-10.594h21.313c5.851 0 10.594 4.743 10.594 10.594v176.104c0 10.585-8.581 19.166-19.166 19.166h-85.01v-48.475h53.105c4.733.001 8.57-3.836 8.57-8.57z" fill="#9e5528"/><path d="m510.776 93.686v176.105c0 10.582-8.576 19.168-19.168 19.168h-85.003v-19.539h67.614c9.399 0 17.019-7.62 17.019-17.019v-159.897c0-5.203-4.216-9.409-9.409-9.409h18.356c5.85-.001 10.591 4.74 10.591 10.591z" fill="#904d24"/><path d="m106.738 427.683h19.621c2.272 0 4.113-1.842 4.113-4.113v-159.104h-27.847v159.104c0 2.271 1.841 4.113 4.113 4.113z" fill="#fae2c0"/><path d="m130.472 264.463v159.106c0 2.273-1.841 4.113-4.113 4.113h-13.924c2.273 0 4.113-1.841 4.113-4.113v-159.106z" fill="#fece85"/><path d="m4.113 426.389h19.621c2.272 0 4.113-1.842 4.113-4.113v-159.108h-27.847v159.108c0 2.272 1.842 4.113 4.113 4.113z" fill="#fae2c0"/><path d="m27.842 263.171v159.104c0 2.273-1.841 4.113-4.113 4.113h-13.914c2.262 0 4.113-1.841 4.113-4.113v-159.104z" fill="#fece85"/><path d="m42.5 231.911v-138.225c0-5.851-4.743-10.594-10.594-10.594h-21.312c-5.851.001-10.594 4.744-10.594 10.594v176.104c0 10.585 8.581 19.166 19.166 19.166h85.009v-48.475h-53.104c-4.733.001-8.571-3.836-8.571-8.57z" fill="#9e5528"/><path d="m0 93.686v176.105c0 10.582 8.576 19.168 19.168 19.168h85.003v-19.539h-67.613c-9.399 0-17.019-7.62-17.019-17.019v-159.897c0-5.203 4.216-9.409 9.409-9.409h-18.356c-5.851-.001-10.592 4.74-10.592 10.591z" fill="#904d24"/><path d="m102.616 292.751c0 6.114 6.532 10.07 11.915 7.17 8.463-4.559 12.191-13.072 26.114-13.072 19.015 0 19.015 15.878 38.029 15.878 19.012 0 19.012-15.878 38.024-15.878 19.013 0 19.013 15.878 38.025 15.878s19.012-15.878 38.024-15.878 19.012 15.878 38.023 15.878c19.013 0 19.013-15.878 38.025-15.878 13.92 0 17.648 8.511 26.108 13.071 5.383 2.901 11.916-1.055 11.916-7.17v-125.401h-304.203z" fill="#fd4755"/><path d="m406.818 167.349v125.402c0 6.113-6.534 10.066-11.916 7.169-8.455-4.557-12.186-13.067-26.103-13.067-19.013 0-19.013 15.878-38.027 15.878s-19.013-15.878-38.027-15.878c-19.013 0-19.013 15.878-38.019 15.878-19.013 0-19.013-15.878-38.027-15.878s-19.014 15.878-38.027 15.878-19.013-15.878-38.027-15.878c-13.925 0-17.648 8.51-26.119 13.067-5.382 2.898-11.908-1.056-11.908-7.169v-13.647c1.548.198 3.183-.064 4.724-.889 8.304-4.47 17.164-12.813 30.819-12.813 18.64 0 18.64 15.568 37.289 15.568 18.64 0 18.64-15.568 37.281-15.568 18.648 0 18.648 15.568 37.289 15.568s18.64-15.568 37.289-15.568c18.639 0 18.64 15.566 37.277 15.568 9.268.001 14.399-4.915 21.38-10.012 3.385-2.471 6.824-4.405 11.009-5.151 7.043-1.255 14.951 3.94 22.213 3.581 11.563-.573 8.095-11.631 8.095-19.249.001-18.507 0-39.879 0-58.386 0-8.134 0-16.269 0-24.403h19.535z" fill="#fb2b3a"/><path d="m155.702 129.093 86.478 83.754c7.408 7.174 19.173 7.174 26.581 0l86.478-83.754z" fill="#fae2c0"/><path d="m355.238 129.093-86.474 83.759c-7.414 7.168-19.179 7.168-26.583 0l-4.514-4.37c4.915.103 9.862-1.687 13.656-5.368l76.427-74.02h27.488z" fill="#fece85"/></svg>